<svg xmlns="http://www.w3.org/2000/svg" width="640" height="440" viewBox="0 0 640 440"><defs><filter id="shadow" x="-35%" y="-20%" width="170%" height="160%"><feDropShadow dx="0" dy="14" stdDeviation="14" flood-color="#5d4677" flood-opacity=".16"/></filter><linearGradient id="card" x2="1" y2="1"><stop stop-color="#766895"/><stop offset="1" stop-color="#49455f"/></linearGradient></defs><g stroke="#dbd3e7" fill="none"><circle cx="320" cy="220" r="175"/><circle cx="320" cy="220" r="235"/></g><g transform="translate(105 67) rotate(-10 95 180)" filter="url(#shadow)"><rect width="186" height="371" rx="28" fill="#38343e"/><rect x="5" y="5" width="176" height="361" rx="24" fill="#faf9fc"/><rect x="66" y="10" width="56" height="12" rx="6" fill="#38343e"/><g font-family="sans-serif"><text x="17" y="21" font-size="6" fill="#595262">9:41</text><text x="143" y="21" font-size="6" fill="#595262">▰ ▮</text><text x="17" y="53" font-size="20" fill="#5f4e75" font-weight="bold">move<tspan fill="#a897c5">.</tspan></text><circle cx="155" cy="47" r="12" fill="#e5d9ee"/><text x="149" y="50" font-size="8" fill="#7c6695">JS</text><text x="17" y="76" font-size="8" fill="#9a90a4">BOM DIA, JULIA ☀</text><text x="17" y="95" font-size="15" fill="#3b3543" font-weight="bold">Seu ritmo. Seu caminho.</text><rect x="14" y="110" width="158" height="122" rx="12" fill="url(#card)"/><text x="26" y="132" font-size="7" fill="#d6cbe5">SEU PRÓXIMO MOVIMENTO</text><text x="26" y="155" font-size="18" font-weight="bold" fill="white">Um passo</text><text x="26" y="175" font-size="18" font-weight="bold" fill="white">de cada vez.</text><path d="M125 149l10 17-14 23m14-23 13 6m-13-6 4-19m-7 30 13 22" stroke="#c9b6e0" stroke-width="5" stroke-linecap="round" fill="none"/><circle cx="136" cy="136" r="6" fill="#c9b6e0"/><rect x="25" y="192" width="88" height="23" rx="11.5" fill="#b9c9e1"/><text x="37" y="207" font-size="7" fill="#424a56">Começar treino →</text><text x="17" y="257" font-size="11" font-weight="bold" fill="#4a3e57">Sua semana em movimento</text><g font-size="6" fill="#94879f" text-anchor="middle"><text x="27" y="276">S</text><text x="49" y="276">T</text><text x="71" y="276">Q</text><text x="93" y="276">Q</text><text x="115" y="276">S</text><text x="137" y="276">S</text><text x="159" y="276">D</text></g><g fill="#c5d1e2"><circle cx="27" cy="292" r="8"/><circle cx="49" cy="292" r="8"/><circle cx="71" cy="292" r="8"/></g><circle cx="93" cy="292" r="8" fill="#9d87b7"/><g fill="#ede8f2"><circle cx="115" cy="292" r="8"/><circle cx="137" cy="292" r="8"/><circle cx="159" cy="292" r="8"/></g><g font-size="7" fill="#55657c"><text x="24" y="295">✓</text><text x="46" y="295">✓</text><text x="68" y="295">✓</text></g><path d="M14 322H172" stroke="#e6dfed"/><g font-size="7" fill="#93849f"><text x="22" y="341">⌂ Início</text><text x="74" y="341">◷ Treinos</text><text x="132" y="341">◉ Perfil</text></g><rect x="68" y="357" width="50" height="3" rx="1.5" fill="#3c3743"/></g></g><g transform="translate(328 76) rotate(9 95 180)" filter="url(#shadow)"><rect width="186" height="371" rx="28" fill="#38343e"/><rect x="5" y="5" width="176" height="361" rx="24" fill="#faf9fc"/><rect x="66" y="10" width="56" height="12" rx="6" fill="#38343e"/><g font-family="sans-serif"><text x="17" y="21" font-size="6" fill="#595262">9:41</text><text x="143" y="21" font-size="6" fill="#595262">▰ ▮</text><text x="18" y="54" font-size="12" fill="#685679">←</text><text x="51" y="54" font-size="12" fill="#4c3f5b" font-weight="bold">Sua evolução</text><text x="60" y="81" font-size="7" fill="#9d8eaa">CADA PASSO CONTA</text><circle cx="93" cy="150" r="47" fill="none" stroke="#ede7f2" stroke-width="11"/><circle cx="93" cy="150" r="47" fill="none" stroke="#a38bbd" stroke-width="11" stroke-dasharray="236 295" stroke-linecap="round" transform="rotate(-90 93 150)"/><text x="93" y="153" text-anchor="middle" font-size="29" font-weight="bold" fill="#5b486c">80<tspan font-size="14">%</tspan></text><text x="93" y="170" text-anchor="middle" font-size="7" fill="#92839c">da sua meta semanal</text><rect x="17" y="217" width="71" height="53" rx="8" fill="#ede7f2"/><rect x="98" y="217" width="71" height="53" rx="8" fill="#e0e6ef"/><text x="29" y="239" font-size="17" font-weight="bold" fill="#69567b">4<tspan font-size="9"> dias</tspan></text><text x="29" y="255" font-size="6" fill="#9786a4">em movimento</text><text x="110" y="239" font-size="17" font-weight="bold" fill="#596577">128</text><text x="110" y="255" font-size="6" fill="#798495">minutos ativos</text><rect x="17" y="283" width="152" height="42" rx="8" fill="#f1edf5"/><text x="29" y="302" font-size="9" fill="#796090">✦ Uma conquista por vez.</text><text x="29" y="316" font-size="6" fill="#9d8eaa">Você está construindo um novo hábito.</text><rect x="68" y="357" width="50" height="3" rx="1.5" fill="#3c3743"/></g></g></svg>
